<?xml version="1.0" encoding="UTF-8"?>
<svg width="1024" height="1024" viewBox="0 0 1024 1024" fill="none" xmlns="http://www.w3.org/2000/svg" role="img" aria-label="씨마스온 카카오톡 챗봇 아바타(플랫)">
  <defs>
    <filter id="shadow" x="0" y="0" width="1024" height="1024" filterUnits="userSpaceOnUse" color-interpolation-filters="sRGB">
      <feDropShadow dx="0" dy="18" stdDeviation="20" flood-color="#000000" flood-opacity="0.16"/>
    </filter>
  </defs>

  <rect width="1024" height="1024" rx="216" fill="#D31B7A"/>

  <g filter="url(#shadow)">
    <path d="M260 360C260 298.144 310.144 248 372 248H652C713.856 248 764 298.144 764 360V566C764 627.856 713.856 678 652 678H484L352.5 777.5C339.03 787.694 320 778.079 320 761.5V678H372C310.144 678 260 627.856 260 566V360Z" fill="#FFFFFF"/>
  </g>

  <circle cx="420" cy="452" r="34" fill="#222222" fill-opacity="0.92"/>
  <circle cx="604" cy="452" r="34" fill="#222222" fill-opacity="0.92"/>
  <path d="M440 548C472 586 552 586 584 548" stroke="#222222" stroke-opacity="0.92" stroke-width="18" stroke-linecap="round"/>

  <g>
    <rect x="302" y="690" width="420" height="108" rx="54" fill="#FFFFFF" fill-opacity="0.20"/>
    <text x="512" y="760" text-anchor="middle" font-family="-apple-system,BlinkMacSystemFont,'Malgun Gothic','Apple SD Gothic Neo',sans-serif" font-size="52" font-weight="800" fill="#FFFFFF">씨마스온</text>
  </g>
</svg>
